<?xml version="1.0" standalone="no"?>
<!DOCTYPE svg PUBLIC "-//W3C//DTD SVG 20010904//EN"
 "http://www.w3.org/TR/2001/REC-SVG-20010904/DTD/svg10.dtd">
<svg version="1.0" xmlns="http://www.w3.org/2000/svg"
 width="336.000000pt" height="150.000000pt" viewBox="0 0 336.000000 150.000000"
 preserveAspectRatio="xMidYMid meet">

<g transform="translate(0.000000,150.000000) scale(0.100000,-0.100000)"
fill="#000000" stroke="none">
<path d="M683 1357 l-182 -132 45 -3 44 -3 0 -165 0 -164 285 0 285 0 0 165 0
165 46 0 47 0 -67 50 -66 51 0 69 0 70 -55 0 c-55 0 -55 0 -55 -31 l0 -31 -64
46 c-36 25 -68 46 -73 46 -4 -1 -90 -60 -190 -133z m387 -156 c17 -32 12 -126
-7 -150 -17 -20 -26 -22 -123 -19 l-105 3 -3 33 -3 32 70 0 c64 0 71 2 71 20
0 19 -7 20 -90 20 l-91 0 3 -67 3 -68 138 -3 c75 -1 137 -6 137 -10 0 -4 -14
-24 -31 -45 l-30 -37 -139 0 c-76 0 -146 3 -155 6 -34 13 -45 59 -45 184 l0
120 195 0 c182 0 195 -1 205 -19z"/>
<path d="M8 1260 l4 -40 69 0 69 0 0 -160 0 -160 50 0 50 0 0 160 0 160 75 0
75 0 0 40 0 40 -198 0 -198 0 4 -40z"/>
<path d="M1760 1100 l0 -200 50 0 50 0 0 200 0 200 -50 0 -50 0 0 -200z"/>
<path d="M1366 1168 c-12 -17 -16 -48 -16 -125 0 -145 -2 -143 185 -143 l145
0 0 35 0 35 -103 0 c-67 0 -107 4 -115 12 -7 7 -12 37 -12 68 0 31 5 61 12 68
7 7 45 12 99 12 88 0 98 4 112 43 6 16 -5 17 -143 17 -143 0 -150 -1 -164 -22z"/>
<path d="M1901 1161 c-12 -16 -21 -32 -21 -35 0 -3 35 -6 78 -8 l77 -3 3 -107
3 -108 49 0 50 0 0 128 c0 163 0 162 -128 162 -89 0 -91 -1 -111 -29z"/>
<path d="M1590 716 l0 -68 25 16 c14 9 36 23 50 32 18 12 25 25 25 49 0 33 -1
33 -50 37 l-50 3 0 -69z"/>
<path d="M0 580 l0 -200 55 0 55 0 0 160 0 160 58 0 c32 0 63 -5 70 -12 8 -8
12 -58 12 -160 l0 -148 50 0 50 0 0 148 c0 102 4 152 12 160 13 13 85 16 112
6 14 -5 16 -29 16 -160 l0 -154 55 0 55 0 0 174 c0 160 -2 175 -21 200 l-20
26 -280 0 -279 0 0 -200z"/>
<path d="M1130 580 l0 -200 55 0 55 0 0 200 0 200 -55 0 -55 0 0 -200z"/>
<path d="M2500 728 c1 -29 1 -104 1 -166 l-1 -113 -87 3 -88 3 0 70 0 70 45 3
c72 4 89 11 105 42 8 16 15 32 15 35 0 4 -54 5 -121 3 -152 -4 -149 -1 -149
-153 0 -152 -11 -145 213 -145 l177 0 0 200 0 200 -56 0 -55 0 1 -52z"/>
<path d="M728 668 c-9 -7 -23 -25 -33 -40 l-17 -27 139 -3 138 -3 3 -72 3 -73
-101 0 c-99 0 -101 0 -98 23 3 20 9 22 76 25 73 3 73 3 70 30 l-3 27 -101 3
c-126 3 -134 -2 -134 -92 0 -35 5 -67 12 -74 8 -8 66 -12 195 -12 l183 0 0
129 c0 128 0 130 -26 150 -24 19 -40 21 -158 21 -91 0 -137 -4 -148 -12z"/>
<path d="M1276 648 c-14 -19 -26 -38 -26 -41 0 -3 35 -7 78 -9 l77 -3 3 -107
3 -108 49 0 50 0 0 134 c0 112 -3 136 -17 147 -10 9 -49 15 -103 17 l-88 4
-26 -34z"/>
<path d="M1770 530 l0 -150 56 0 55 0 -3 110 -3 110 76 0 c61 0 78 -3 83 -16
3 -9 6 -58 6 -110 l0 -94 50 0 50 0 0 128 c0 70 -4 132 -8 138 -18 28 -56 34
-206 34 l-156 0 0 -150z"/>
<path d="M2708 669 c-16 -9 -18 -27 -18 -149 l0 -140 50 0 50 0 0 104 c0 73 4
107 13 113 6 4 36 10 66 13 46 4 57 10 79 38 l25 32 -124 0 c-68 0 -132 -5
-141 -11z"/>
<path d="M3009 649 c-16 -17 -29 -35 -29 -40 0 -5 58 -9 128 -9 86 0 132 -4
140 -12 7 -7 12 -39 12 -75 l0 -63 -100 0 -100 0 0 25 c0 24 2 25 70 25 l70 0
0 30 0 30 -96 0 c-130 0 -134 -3 -134 -94 0 -58 3 -75 16 -80 9 -3 96 -6 195
-6 l179 0 0 125 c0 120 -1 127 -25 150 -23 24 -29 25 -161 25 l-136 0 -29 -31z"/>
<path d="M1644 638 l-49 -33 -3 -112 -3 -113 53 0 53 0 0 145 c0 80 -1 145 -1
145 -1 0 -24 -15 -50 -32z"/>
<path d="M940 140 c0 -123 1 -130 20 -130 18 0 20 7 20 55 l0 55 65 0 c50 0
65 3 65 15 0 10 -16 15 -62 17 l-63 3 -3 43 -3 42 65 0 c52 0 66 3 66 15 0 12
-16 15 -85 15 l-85 0 0 -130z"/>
<path d="M1167 252 c-13 -14 -17 -39 -17 -108 0 -124 8 -134 106 -134 104 0
114 11 114 130 0 119 -10 130 -113 130 -59 0 -77 -4 -90 -18z m147 -28 c12
-11 16 -35 16 -84 0 -49 -4 -73 -16 -84 -18 -19 -94 -22 -112 -4 -19 19 -16
153 4 172 20 21 88 21 108 0z"/>
<path d="M1420 162 c0 -145 5 -152 110 -152 105 0 110 7 110 152 0 101 -1 108
-20 108 -19 0 -20 -7 -20 -96 0 -122 -6 -134 -70 -134 -64 0 -70 12 -70 134 0
89 -1 96 -20 96 -19 0 -20 -7 -20 -108z"/>
<path d="M1700 141 c0 -124 1 -131 20 -131 19 0 20 7 21 118 l0 117 60 -117
59 -118 40 0 40 0 0 130 c0 125 -1 130 -21 130 -20 0 -21 -4 -17 -115 1 -63 1
-115 -2 -115 -3 0 -30 51 -61 113 l-57 112 -41 3 -41 3 0 -130z"/>
<path d="M2000 140 l0 -130 94 0 c90 0 96 1 115 26 17 22 21 41 21 110 0 77
-2 84 -26 103 -23 18 -41 21 -115 21 l-89 0 0 -130z m168 84 c19 -13 22 -24
22 -77 0 -90 -16 -109 -88 -105 l-57 3 -3 84 c-2 46 -1 90 2 98 8 19 96 17
124 -3z"/>
<path d="M2306 153 c-21 -65 -41 -124 -43 -130 -3 -8 3 -13 16 -13 14 0 25 9
31 25 9 23 14 25 74 25 60 0 64 -2 70 -25 4 -16 13 -25 26 -25 11 0 20 3 20 7
0 5 -18 63 -41 130 l-41 123 -37 0 -37 0 -38 -117z m119 -30 l7 -33 -51 0
c-28 0 -51 2 -51 3 0 4 36 112 46 137 6 16 36 -50 49 -107z"/>
<path d="M2500 256 c0 -10 13 -16 38 -18 l37 -3 3 -112 c2 -105 4 -113 22
-113 19 0 20 7 20 115 l0 115 40 0 c29 0 40 4 40 15 0 12 -18 15 -100 15 -80
0 -100 -3 -100 -14z"/>
<path d="M2740 140 c0 -123 1 -130 20 -130 19 0 20 7 20 130 0 123 -1 130 -20
130 -19 0 -20 -7 -20 -130z"/>
<path d="M2847 252 c-13 -15 -17 -39 -17 -114 0 -120 6 -128 108 -128 102 0
112 12 112 130 0 119 -10 130 -113 130 -59 0 -77 -4 -90 -18z m147 -28 c12
-11 16 -35 16 -84 0 -49 -4 -73 -16 -84 -18 -19 -94 -22 -112 -4 -19 19 -16
153 4 172 20 21 88 21 108 0z"/>
<path d="M3100 141 c0 -124 1 -131 20 -131 18 0 20 8 22 118 l3 117 60 -117
60 -118 43 0 42 0 0 130 0 130 -25 0 -26 0 7 -117 c4 -65 3 -114 -2 -110 -4 4
-33 56 -64 115 l-55 107 -43 3 -42 3 0 -130z"/>
</g>
</svg>
