<?xml version="1.0" standalone="no"?>
<!DOCTYPE svg PUBLIC "-//W3C//DTD SVG 20010904//EN"
 "http://www.w3.org/TR/2001/REC-SVG-20010904/DTD/svg10.dtd">
<svg version="1.0" xmlns="http://www.w3.org/2000/svg"
 width="716.000000pt" height="320.000000pt" viewBox="0 0 716.000000 320.000000"
 preserveAspectRatio="xMidYMid meet">

<g transform="translate(0.000000,320.000000) scale(0.100000,-0.100000)"
fill="#000000" stroke="none">
<path d="M2210 2683 c-147 -25 -220 -108 -220 -250 0 -111 33 -173 112 -214
47 -24 163 -41 236 -34 75 8 182 26 182 32 0 2 -5 25 -11 49 -11 42 -14 45
-38 40 -70 -15 -217 -17 -256 -3 -76 27 -107 116 -70 203 27 65 137 90 287 65
l48 -8 13 46 c8 25 11 49 8 53 -17 20 -215 34 -291 21z"/>
<path d="M840 2625 l0 -54 98 -3 97 -3 3 -188 2 -188 68 3 67 3 3 188 2 187
99 0 99 0 0 55 0 55 -269 0 -269 0 0 -55z"/>
<path d="M1440 2435 l0 -245 245 0 245 0 0 55 0 55 -175 0 -175 0 0 45 0 45
155 0 155 0 0 50 0 50 -155 0 -155 0 0 40 0 40 165 0 165 0 0 55 0 55 -235 0
-235 0 0 -245z"/>
<path d="M2600 2435 l0 -245 70 0 70 0 0 85 0 85 135 0 135 0 0 -85 0 -85 70
0 70 0 0 245 0 245 -70 0 -70 0 0 -105 0 -105 -135 0 -135 0 0 105 0 105 -70
0 -70 0 0 -245z"/>
<path d="M2670 1615 l0 -335 60 0 60 0 -2 333 -3 332 -57 3 -58 3 0 -336z"/>
<path d="M3440 1879 c0 -39 3 -69 8 -67 4 2 31 16 60 32 49 27 52 32 52 68 l0
38 -60 0 -60 0 0 -71z"/>
<path d="M4960 1660 l0 -290 -188 0 c-133 0 -192 4 -200 12 -8 8 -12 48 -12
115 0 108 13 154 45 167 9 3 70 6 136 6 l119 0 20 40 c11 21 20 44 20 50 0 8
-52 11 -179 8 l-179 -3 -39 -31 c-53 -43 -62 -77 -62 -237 -1 -146 8 -185 48
-207 12 -6 129 -10 305 -10 l286 0 0 335 0 335 -60 0 -60 0 0 -290z"/>
<path d="M3493 1768 l-53 -30 0 -229 0 -229 60 0 60 0 0 260 c0 143 -3 260 -7
259 -5 0 -32 -14 -60 -31z"/>
<path d="M840 1525 l0 -245 60 0 60 0 0 195 0 196 143 -3 142 -3 3 -192 2
-193 60 0 60 0 0 195 0 195 123 0 c173 0 167 8 167 -218 l0 -172 60 0 60 0 0
188 c0 217 -7 240 -80 279 -43 23 -46 23 -452 23 l-408 0 0 -245z"/>
<path d="M1992 1725 c-12 -25 -22 -48 -22 -50 0 -3 90 -5 200 -5 200 0 201 0
225 -25 24 -23 25 -30 25 -150 l0 -125 -199 0 c-226 0 -224 -1 -219 77 l3 48
122 3 123 3 15 29 c8 16 15 31 15 35 0 3 -77 5 -170 5 -168 0 -171 0 -195 -25
-23 -22 -25 -32 -25 -115 0 -88 1 -93 29 -121 l29 -29 296 0 296 0 0 189 c0
179 -1 190 -22 221 -50 73 -56 75 -291 78 l-212 3 -23 -46z"/>
<path d="M2861 1731 c-12 -22 -21 -45 -21 -51 0 -6 50 -10 140 -10 136 0 142
-1 165 -25 25 -24 25 -27 25 -195 l0 -170 61 0 60 0 -3 194 c-3 178 -5 197
-24 222 -48 64 -62 69 -229 72 l-154 3 -20 -40z"/>
<path d="M3710 1525 l0 -245 60 0 60 0 0 195 0 195 164 0 165 0 20 -26 c19
-25 21 -40 21 -195 l0 -169 60 0 60 0 0 188 c0 217 -7 240 -80 279 -41 22 -53
23 -287 23 l-243 0 0 -245z"/>
<path d="M5340 1748 c-77 -39 -84 -63 -88 -280 l-4 -188 66 0 66 0 0 175 c0
225 -8 215 163 215 l123 0 22 45 c12 25 22 48 22 50 0 3 -73 5 -163 5 -149 0
-167 -2 -207 -22z"/>
<path d="M5772 1723 l-21 -48 202 -3 c260 -3 247 6 247 -174 l0 -128 -202 2
-203 3 -3 63 -3 62 119 0 c125 0 133 2 146 48 l7 22 -168 0 c-215 -1 -223 -6
-223 -150 0 -77 2 -83 29 -111 l29 -29 296 0 296 0 0 191 c0 179 -1 194 -22
227 -39 63 -75 72 -304 72 l-201 0 -21 -47z"/>
<path d="M1267 876 c-76 -28 -107 -78 -107 -174 0 -124 62 -185 190 -185 135
0 194 63 188 200 -4 80 -22 114 -75 146 -42 24 -148 31 -196 13z m158 -68 c33
-29 48 -93 36 -150 -14 -61 -49 -88 -112 -88 -42 0 -55 5 -79 28 -52 52 -48
168 7 211 37 30 113 29 148 -1z"/>
<path d="M2453 884 c-23 -5 -23 -7 -23 -183 l0 -178 78 -6 c136 -12 206 9 256
77 17 22 21 42 21 104 0 141 -49 183 -214 188 -53 1 -106 0 -118 -2z m208 -64
c29 -16 49 -64 49 -119 0 -97 -36 -131 -140 -131 l-60 0 0 130 0 130 66 0 c36
0 74 -5 85 -10z"/>
<path d="M2940 868 c-34 -80 -130 -330 -130 -338 0 -6 16 -10 35 -10 32 0 37
4 51 40 l16 40 78 0 77 0 12 -40 c11 -38 14 -40 52 -40 50 0 52 -11 -35 205
l-64 160 -41 3 c-35 3 -42 0 -51 -20z m79 -127 c30 -91 30 -91 -34 -91 -30 0
-55 3 -55 8 0 20 55 161 60 155 4 -5 17 -37 29 -72z"/>
<path d="M3787 876 c-76 -28 -107 -78 -107 -174 0 -124 62 -185 190 -185 135
0 194 63 188 200 -4 80 -22 114 -75 146 -42 24 -148 31 -196 13z m158 -68 c52
-45 52 -171 0 -215 -40 -35 -117 -32 -155 5 -52 52 -48 168 7 211 37 30 113
29 148 -1z"/>
<path d="M840 700 l0 -180 35 0 34 0 3 63 3 62 93 3 92 3 0 29 0 30 -95 0 -95
0 0 55 0 55 110 0 110 0 0 30 0 30 -145 0 -145 0 0 -180z"/>
<path d="M1600 745 c0 -157 10 -187 68 -212 47 -20 167 -21 206 -2 61 30 70
56 74 209 l4 140 -41 0 -41 0 0 -133 c0 -150 -5 -163 -73 -174 -46 -7 -82 2
-107 27 -18 18 -20 34 -20 150 l0 130 -35 0 -35 0 0 -135z"/>
<path d="M2020 700 l0 -180 35 0 34 0 3 122 3 122 94 -122 c87 -113 97 -122
128 -122 l33 0 0 180 0 180 -30 0 -29 0 -3 -127 -3 -127 -95 127 c-92 121 -96
126 -132 126 l-38 1 0 -180z"/>
<path d="M3150 850 l0 -30 65 0 65 0 0 -150 0 -150 40 0 40 0 0 150 0 150 65
0 65 0 0 30 0 30 -170 0 -170 0 0 -30z"/>
<path d="M3540 700 l0 -180 35 0 35 0 0 180 0 180 -35 0 -35 0 0 -180z"/>
<path d="M4130 700 l0 -180 30 0 29 0 3 126 3 126 98 -126 c92 -118 100 -126
132 -126 l35 0 0 180 0 180 -35 0 -35 0 0 -126 0 -126 -96 126 c-90 118 -99
126 -130 126 l-34 0 0 -180z"/>
</g>
</svg>
